<svg xmlns="http://www.w3.org/2000/svg" xmlns:xlink="http://www.w3.org/1999/xlink" width="2000" zoomAndPan="magnify" viewBox="0 0 1500 1499.999933" height="2000" preserveAspectRatio="xMidYMid meet" version="1.0"><defs><g/><clipPath id="0907917dad"><path d="M 568 0.121094 L 869 0.121094 L 869 816 L 568 816 Z M 568 0.121094 " clip-rule="nonzero"/></clipPath><clipPath id="723ce39ee1"><rect x="0" width="1393" y="0" height="911"/></clipPath></defs><rect x="-150" width="1800" fill="#ffffff" y="-149.999993" height="1799.99992" fill-opacity="1"/><rect x="-150" width="1800" fill="#eeede9" y="-149.999993" height="1799.99992" fill-opacity="1"/><g transform="matrix(1, 0, 0, 1, 12, 339)"><g clip-path="url(#723ce39ee1)"><g fill="#2c4236" fill-opacity="1"><g transform="translate(735.323212, 712.699573)"><g><path d="M 42.796875 -302.15625 C 42.796875 -360.925781 55.347656 -413.5625 80.453125 -460.0625 C 105.566406 -506.5625 141.234375 -543.503906 187.453125 -570.890625 C 233.671875 -598.285156 288.738281 -611.984375 352.65625 -611.984375 C 409.144531 -611.984375 458.5 -602.28125 500.71875 -582.875 C 542.945312 -563.476562 577.039062 -535.664062 603 -499.4375 C 628.96875 -463.207031 644.804688 -420.269531 650.515625 -370.625 L 513.5625 -370.625 C 506.71875 -410.570312 488.742188 -440.816406 459.640625 -461.359375 C 430.546875 -481.898438 395.453125 -492.171875 354.359375 -492.171875 C 301.859375 -492.171875 259.628906 -476.050781 227.671875 -443.8125 C 195.722656 -411.570312 179.75 -364.351562 179.75 -302.15625 C 179.75 -239.957031 195.722656 -192.59375 227.671875 -160.0625 C 259.628906 -127.539062 301.859375 -111.28125 354.359375 -111.28125 C 395.453125 -111.28125 430.546875 -121.691406 459.640625 -142.515625 C 488.742188 -163.347656 506.71875 -193.734375 513.5625 -233.671875 L 650.515625 -233.671875 C 644.804688 -184.023438 628.96875 -141.082031 603 -104.84375 C 577.039062 -68.613281 542.945312 -40.65625 500.71875 -20.96875 C 458.5 -1.28125 409.144531 8.5625 352.65625 8.5625 C 288.738281 8.5625 233.671875 -5.128906 187.453125 -32.515625 C 141.234375 -59.910156 105.566406 -97.003906 80.453125 -143.796875 C 55.347656 -190.585938 42.796875 -243.375 42.796875 -302.15625 Z M 42.796875 -302.15625 "/></g></g></g><g fill="#000000" fill-opacity="1"><g transform="translate(0.59537, 712.699573)"><g><path d="M 42.796875 -302.15625 C 42.796875 -360.925781 55.207031 -413.5625 80.03125 -460.0625 C 104.851562 -506.5625 140.234375 -543.503906 186.171875 -570.890625 C 232.109375 -598.285156 287.03125 -611.984375 350.9375 -611.984375 C 414.851562 -611.984375 469.632812 -598.285156 515.28125 -570.890625 C 560.925781 -543.503906 596.160156 -506.5625 620.984375 -460.0625 C 645.804688 -413.5625 658.21875 -360.925781 658.21875 -302.15625 C 658.21875 -243.375 645.804688 -190.585938 620.984375 -143.796875 C 596.160156 -97.003906 560.925781 -59.910156 515.28125 -32.515625 C 469.632812 -5.128906 414.851562 8.5625 350.9375 8.5625 C 287.03125 8.5625 232.109375 -5.128906 186.171875 -32.515625 C 140.234375 -59.910156 104.851562 -97.003906 80.03125 -143.796875 C 55.207031 -190.585938 42.796875 -243.375 42.796875 -302.15625 Z M 179.75 -302.15625 C 179.75 -243.945312 194.015625 -197.582031 222.546875 -163.0625 C 251.078125 -128.539062 293.875 -111.28125 350.9375 -111.28125 C 408 -111.28125 450.648438 -128.539062 478.890625 -163.0625 C 507.140625 -197.582031 521.265625 -243.945312 521.265625 -302.15625 C 521.265625 -359.789062 507.140625 -405.867188 478.890625 -440.390625 C 450.648438 -474.910156 408 -492.171875 350.9375 -492.171875 C 293.875 -492.171875 251.078125 -474.910156 222.546875 -440.390625 C 194.015625 -405.867188 179.75 -359.789062 179.75 -302.15625 Z M 179.75 -302.15625 "/></g></g></g><g clip-path="url(#0907917dad)"><path stroke-linecap="butt" transform="matrix(-0.377784, 1.227095, -1.227095, -0.377784, 841.411376, 4.137665)" fill="none" stroke-linejoin="miter" d="M 0.000568515 1.999951 L 638.06453 2.000104 " stroke="#000000" stroke-width="4" stroke-opacity="1" stroke-miterlimit="4"/></g></g></g></svg>